<svg width="92.841mm" height="33.057mm" version="1.1" viewBox="0 0 92.841 33.057" xmlns="http://www.w3.org/2000/svg">
 <path id="signature" d="m65.815 33.925c0-0.04657 0.0381-0.08467 0.08467-0.08467s0.08467 0.0381 0.08467 0.08467-0.0381 0.08467-0.08467 0.08467-0.08467-0.0381-0.08467-0.08467zm7.5992-3.1428c-0.3141-0.0871-0.64407-0.23135-0.73327-0.32055-0.0892-0.0892-0.28941-0.2255-0.44491-0.30288-0.1555-0.07738-0.51133-0.42422-0.79073-0.77076s-0.54725-0.67715-0.59523-0.7347c-0.13001-0.15595-0.28042-0.71907-0.33883-1.2685-0.07189-0.67624 0.13795-1.6474 0.47115-2.1804 0.04366-0.06985 0.13223-0.2413 0.19682-0.381 0.06459-0.1397 0.23415-0.39902 0.3768-0.57626 0.14264-0.17724 0.27134-0.35072 0.28599-0.38551 0.02733-0.0649 1.2843-1.119 1.8895-1.5846 0.31128-0.23946 0.59864-0.40082 1.7778-0.99831 0.62633-0.31737 1.561-0.71126 2.7517-1.1597l1.0583-0.39856 0.13642-0.45422c0.07503-0.24982 0.2423-0.89237 0.37171-1.4279s0.26508-1.0121 0.30149-1.0591c0.12738-0.16434 0.33454-1.2475 0.42607-2.2278 0.12755-1.3661 0.43246-3.7811 0.68069-5.3914 0.12964-0.84102 0.1308-0.84647 0.36942-1.7357 0.43527-1.622 0.94063-2.6023 1.5741-3.0534 0.2185-0.15559 0.29745-0.17281 0.42554-0.092818 0.08649 0.054016 0.22881 0.098211 0.31627 0.098211 0.08746 0 0.28228 0.10763 0.43295 0.23918 0.43533 0.38008 0.35563 0.96651-0.21294 1.5669-0.21842 0.23064-0.32463 0.46418-0.75772 1.6662-0.21366 0.59299-0.39838 1.5337-0.54017 2.7508-0.23203 1.9918-0.27582 2.3507-0.39775 3.2597-0.07183 0.53552-0.14669 1.1642-0.16635 1.397-0.10091 1.195-0.25955 2.1301-0.51635 3.0436-0.34307 1.2203-0.34922 1.3447-0.07272 1.4707 0.15644 0.07128 0.21167 0.16188 0.21167 0.34726 0 0.13795-0.03452 0.27216-0.07672 0.29823-0.04219 0.02608-0.0568 0.12358-0.03246 0.21666 0.03153 0.12056 0.0025 0.16925-0.10071 0.16925-0.31857 0-0.63197 0.33801-0.77017 0.83065-0.23214 0.82752-0.55218 1.7307-0.80695 2.2773-0.13475 0.2891-0.245 0.56227-0.245 0.60704 0 0.1104-0.88479 1.9168-1.1455 2.3387-0.11511 0.18627-0.26194 0.45297-0.32628 0.59267-0.06434 0.1397-0.18814 0.33134-0.27511 0.42587-0.08697 0.09453-0.23187 0.30408-0.322 0.46567-0.24082 0.43173-0.996 1.267-1.0919 1.2077-0.04549-0.02811-0.05655-0.0088-0.02459 0.04292 0.03256 0.05268-0.0441 0.16082-0.17432 0.24592-0.12784 0.08354-0.31628 0.22942-0.41876 0.32418-0.10248 0.09476-0.29437 0.22812-0.42643 0.29633-0.13206 0.06822-0.27868 0.173-0.32581 0.23284-0.048 0.06094-0.34212 0.1273-0.6686 0.15085-0.32059 0.02313-0.60588 0.05514-0.63396 0.07114-0.02809 0.016-0.30806-0.04217-0.62215-0.12927zm0.72424-2.2297c0.62353-0.29937 1.2442-0.9179 2.1318-2.1244 0.7405-1.0066 1.1119-1.6442 1.6252-2.7901 0.20859-0.46567 0.43331-0.9573 0.49939-1.0925 0.14847-0.30382 0.14845-0.30449-0.0069-0.30449-0.06985 0-0.127 0.0381-0.127 0.08467s-0.05767 0.08467-0.12815 0.08467c-0.07048 0-0.19431 0.03657-0.27517 0.08126-0.08086 0.0447-0.37562 0.19077-0.65502 0.32461-0.71656 0.34324-1.8546 0.96097-1.905 1.034-0.02328 0.03376-0.20155 0.14209-0.39615 0.24074-0.35486 0.17989-1.2927 0.91735-1.5748 1.2383-0.57246 0.65136-1.131 1.6429-1.2125 2.1523-0.07111 0.44473 0.061 0.74899 0.45742 1.0535 0.27542 0.21155 0.36892 0.23632 0.77867 0.20632 0.25612-0.01875 0.61078-0.10377 0.78815-0.18892zm11.702-9.4215c-0.30097-0.07627-1.0214-0.76687-1.2247-1.1741-0.22304-0.44659-0.3113-1.3394-0.14954-1.5126 0.13452-0.144 0.36508-0.06683 0.52374 0.1753 0.07309 0.11155 0.17964 0.20143 0.23678 0.19973 0.21394-0.0064 0.7366-1.0037 0.99671-1.9019 0.08091-0.2794 0.17474-0.59372 0.20851-0.6985 0.03867-0.11995 0.02664-0.1905-0.03249-0.1905-0.05164 0-0.17991-0.0733-0.28504-0.1629-0.10513-0.08959-0.28639-0.23884-0.40281-0.33166-0.19107-0.15233-0.21034-0.22403-0.19804-0.7367 0.0091-0.37823 0.05628-0.6106 0.14133-0.69565 0.07826-0.07825 0.42889-0.16227 0.9055-0.21698 0.75442-0.08659 0.78108-0.09706 0.88695-0.34853 0.06003-0.14259 0.24447-0.56406 0.40985-0.93659 0.16538-0.37253 0.3278-0.79163 0.36093-0.93133 0.03312-0.1397 0.17274-0.47661 0.31028-0.74868 0.13752-0.27207 0.27448-0.57687 0.30435-0.67733 0.02987-0.10046 0.25607-0.55146 0.50268-1.0022 0.32748-0.59858 0.52718-0.86605 0.74061-0.99198 0.24299-0.14337 0.29223-0.15066 0.29223-0.043278 0 0.071028 0.03837 0.10543 0.08527 0.076445 0.04689-0.028983 0.10812 0.00687 0.13606 0.07967 0.02793 0.072802 0.11425 0.13237 0.19181 0.13237 0.07756 0 0.21496 0.1373 0.30533 0.3051l0.1643 0.3051-0.1977 0.5204c-0.10873 0.28622-0.34125 0.9395-0.5167 1.4517-0.17546 0.51223-0.43345 1.179-0.57332 1.4817-0.13987 0.30268-0.28051 0.67439-0.31253 0.82601-0.05361 0.25389-0.04262 0.27329 0.13912 0.24548 0.10853-0.01661 0.38784 0.01373 0.62067 0.06741 0.23283 0.05369 0.57573 0.09035 0.762 0.08146 0.23294-0.01111 0.43117 0.04514 0.635 0.18018 0.16298 0.10798 0.43824 0.2221 0.61169 0.25358 0.27382 0.04971 0.32232 0.09436 0.36822 0.33906 0.02908 0.155 0.02704 0.32361-0.0045 0.37468-0.05862 0.09486-0.66168 0.38625-1.1447 0.55313-0.02328 8e-3 -0.09948 0.03824-0.16933 0.0671-0.06985 0.02886-0.3937 0.06835-0.71967 0.08776-0.9075 0.05403-1.9362 0.22324-2.0447 0.33631-0.05353 0.05582-0.23221 0.5206-0.39707 1.0328-0.8738 2.7149-1.2129 3.4438-1.8526 3.9821-0.2501 0.21044-0.30847 0.22439-0.61443 0.14686zm-73.19-1.2696c-0.44498-0.08371-1.1757-0.7526-1.5513-1.42-0.17914-0.31833-0.19044-0.43401-0.18818-1.9262 0.0013-0.87312-0.02725-1.5875-0.0635-1.5875s-0.06652 0.02858-0.06726 0.0635c-7.62e-4 0.03492-0.11504 0.19249-0.254 0.35014-0.13896 0.15765-0.25265 0.33863-0.25265 0.40217s-0.04763 0.11701-0.10583 0.11883c-0.11171 0.0035-0.55502 0.55987-0.91017 1.1423-0.2561 0.42001-0.21372 0.37195-1.524 1.7282l-1.0583 1.0955-0.42333-0.024585c-0.23283-0.013522-0.50388-0.030326-0.60232-0.037342-0.1045-0.007448-0.27665-0.15368-0.41368-0.35142-0.12908-0.18627-0.28761-0.33867-0.35228-0.33867-0.13822 0-0.28286-0.33888-0.28241-0.66168 4.064e-4 -0.29162 0.27351-0.74008 0.67982-1.1163 0.17601-0.16298 0.3784-0.41063 0.44977-0.55033 0.071363-0.1397 0.48697-0.60329 0.92357-1.0302s0.88632-0.9112 0.99937-1.0762c0.11305-0.16499 0.30108-0.34903 0.41785-0.40899 0.26385-0.13548 0.2221-0.0803 0.9743-1.2879 0.25302-0.40621 0.8074-1.12 1.2474-1.606 0.12726-0.14059 0.29013-0.37941 0.36193-0.53071 0.0718-0.1513 0.17749-0.3245 0.23488-0.38488 0.15033-0.15818 1.03-1.5031 1.1793-1.8031 0.06955-0.1397 0.28448-0.52906 0.47763-0.86524 0.19314-0.33618 0.35141-0.66003 0.35169-0.71967 2.54e-4 -0.059636 0.05514-0.21313 0.12189-0.34109 0.06675-0.12796 0.13857-0.34179 0.15959-0.47516 0.04286-0.27195 0.20044-0.60114 0.29248-0.611 0.96735-0.10362 1.0249-0.090836 1.4125 0.31367 0.2959 0.30882 0.37984 0.46509 0.41912 0.78032 0.02701 0.21679 0.03199 0.48941 0.01106 0.60583-0.05975 0.33237-0.47568 1.5153-0.72938 2.0743-0.47516 1.0471-0.98057 2.7641-1.3458 4.572-0.20754 1.0273-0.36534 2.2343-0.32919 2.5179l0.02956 0.23188 0.29633-0.27649c0.38286-0.35722 2.2479-1.8713 2.8144-2.2849 0.24081-0.17578 0.45856-0.34848 0.48387-0.38378 0.02532-0.0353 0.24434-0.18962 0.48673-0.34295 0.47736-0.30196 0.9563-0.75129 0.9563-0.89716 0-0.05006 0.0762-0.23319 0.16933-0.40695 0.09313-0.17377 0.16933-0.35794 0.16933-0.40928 0-0.051339 0.05349-0.2134 0.11887-0.36014 0.06538-0.14674 0.29682-0.74305 0.51432-1.3251 0.45449-1.2163 0.88774-2.0627 1.2182-2.3796 0.37467-0.3594 0.91016-0.66118 1.2774-0.71991 0.28588-0.045715 0.40091-0.01699 0.68512 0.17109 0.37588 0.24874 0.51063 0.50151 0.4626 0.86772-0.01734 0.13222-0.03621 0.24039-0.04194 0.24039-0.0057 0-0.02996 0.24623-0.05386 0.54718-0.02619 0.32991-0.14078 0.7759-0.28856 1.1232-0.13481 0.31681-0.24506 0.60398-0.245 0.63816 1.69e-4 0.079121-0.25332 0.69896-0.35434 0.86647-0.04212 0.06985-0.10127 0.18415-0.13145 0.254-0.03018 0.06985-0.22043 0.36243-0.42279 0.65017-0.20236 0.28774-0.36792 0.54927-0.36792 0.58117 0 0.0319-0.19648 0.2848-0.43663 0.562-0.45934 0.53022-0.78522 1.3128-1.0512 2.5246-0.14154 0.64477-0.14567 0.70273-0.0457 0.64094 0.04131-0.02553 0.06988 0.01985 0.0635 0.10084-0.0083 0.1054 0.04314 0.14142 0.18099 0.12672 0.13456-0.01435 0.22158 0.04306 0.28876 0.1905 0.1253 0.27499 0.22342 0.26744 0.28322-0.02179 0.12819-0.62013 0.27262-0.99626 0.78267-2.0383 0.32505-0.66407 0.63394-1.1817 0.75093-1.2583 0.22885-0.14995 0.71172-0.09492 0.91039 0.10376 0.06802 0.06802 0.15774 0.12367 0.19938 0.12367 0.1157 0 0.44439 0.70946 0.44439 0.9592 0 0.2019-0.23102 0.70648-0.44272 0.96697-0.32587 0.40098 0.82518-0.31083 1.4316-0.88528 0.45738-0.43328 0.61487-0.53289 0.84256-0.53289 0.44623 0 0.94407 0.30853 1.1348 0.70328 0.22312 0.4618 0.21474 0.53488-0.13737 1.1984-0.39468 0.74374-0.30813 0.84165 0.38491 0.43547 0.53469-0.31338 0.82419-0.37036 1.1085-0.21821 0.23127 0.12377 0.16239 0.81336-0.09956 0.99684-0.1006 0.07046-0.26318 0.22526-0.3613 0.34399-0.6871 0.83147-1.5282 1.4698-1.7045 1.2936-0.02661-0.02661-0.13228-0.05325-0.23482-0.05919-0.28657-0.01661-0.56744-0.1243-0.56744-0.21756 0-0.04618-0.03626-0.06155-0.08058-0.03416s-0.21904-0.08466-0.38827-0.249c-0.16923-0.16434-0.34944-0.2988-0.40048-0.2988-0.05104 0-0.4257 0.3406-0.83258 0.75688-0.56518 0.57824-0.80977 0.77001-1.0363 0.81251-0.3971 0.0745-0.75802-0.01407-0.90716-0.22261-0.06725-0.09404-0.28404-0.34981-0.48175-0.56838-0.23886-0.26406-0.35959-0.47553-0.35983-0.63024-4.23e-4 -0.2858-0.2149-0.3153-0.30777-0.04233-0.03565 0.10478-0.05895 0.21403-0.05178 0.24278 0.0281 0.11272-0.88618 0.14966-1.2624 0.05101-0.40946-0.10736-1.1724-0.67156-1.1724-0.86699 0-0.06116-0.03812-0.1239-0.0847-0.13943-0.04659-0.01553-0.13035-0.25683-0.18615-0.53622s-0.10837-0.5193-0.11682-0.53312c-0.0084-0.01382-0.39805 0.36718-0.86577 0.84667-0.46772 0.47949-1.0869 1.0623-1.376 1.2951-0.28908 0.23283-0.66344 0.53921-0.83191 0.68084-0.25932 0.218-0.73937 0.48938-0.79713 0.45063-0.0095-0.0063-0.10964-0.02892-0.22264-0.05018zm37.002-0.07377c-0.2979-0.06516-0.58364-0.15038-0.635-0.18938-0.05135-0.039-0.34102-0.16104-0.6437-0.2712-0.72146-0.26259-0.90822-0.36227-0.87357-0.46624 0.01572-0.04717-0.14324-0.2294-0.35326-0.40495-0.21304-0.17808-0.38184-0.39218-0.38184-0.4843 0-0.09082-0.04312-0.16512-0.09582-0.16512-0.06334 0-0.07999-0.11797-0.04912-0.34811 0.05065-0.37766 0.43941-0.8723 0.62853-0.79972 0.13081 0.0502 0.15349-0.33872 0.02441-0.4185-0.1866-0.11532-0.08805-0.74818 0.18722-1.2024 0.14954-0.24674 0.2987-0.44862 0.33147-0.44862 0.03277 0 0.14855-0.07675 0.25728-0.17055 0.29728-0.25645 1.1676-0.75715 1.4172-0.81531 0.12091-0.02817 0.54369-0.14452 0.9395-0.25854 0.94465-0.27213 2.5491-0.31019 3.1115-0.0738 0.19791 0.08318 0.35983 0.18793 0.35983 0.23276 0 0.04484 0.06011 0.14163 0.13358 0.2151 0.07346 0.07347 0.11498 0.20467 0.09226 0.29156-0.02845 0.10878 0.02884 0.19609 0.18393 0.28032 0.21851 0.11868 0.21007 0.12268-0.28276 0.13393-0.2794 0.0064-0.64292 0.0056-0.80782-0.0018-0.1649-0.0074-0.584 0.06838-0.93133 0.16833-0.34734 0.09995-0.76487 0.21469-0.92785 0.25499-0.16298 0.04029-0.41063 0.12815-0.55033 0.19524-0.1397 0.06709-0.38735 0.18434-0.55033 0.26056-0.33756 0.15786-0.90898 0.60907-0.84613 0.66812 0.02299 0.0216 0.34659 0.06511 0.71913 0.09671 0.37253 0.03159 0.85261 0.07301 1.0668 0.09203 0.89984 0.07989 1.7967 0.46064 2.4088 1.0226 0.28815 0.26455 0.49899 0.80221 0.49414 1.2601-0.0069 0.65158-0.05019 0.80433-0.22795 0.80433-0.08752 0-0.25612 0.07629-0.37466 0.16954-0.11854 0.09325-0.46194 0.24565-0.76311 0.33867-0.65972 0.20377-2.2056 0.22076-3.061 0.03365zm6.3836 0.03381c-0.18627-0.05034-0.36914-0.14331-0.40637-0.2066-0.03724-0.06329-0.11007-0.11507-0.16185-0.11507-0.14518 0-0.64093-0.59155-0.85146-1.016-0.15828-0.31911-0.18755-0.5119-0.18019-1.1868 0.0099-0.90497 0.05791-1.0342 0.67057-1.8049 0.40367-0.50778 0.70248-0.68859 1.2943-0.78324 0.28285-0.04523 0.44608-0.0029 0.98135 0.25456 0.80765 0.38847 0.98233 0.56971 0.98064 1.0175-0.0017 0.45714-0.09512 0.58922-0.37836 0.53507-0.35002-0.06691-0.78928 0.10643-1.0647 0.42017-0.13691 0.15594-0.24893 0.32029-0.24893 0.36524 0 0.12501 0.22641 0.09722 0.3689-0.04528 0.06985-0.06985 0.15242-0.127 0.18348-0.127 0.03106 0 0.16918-0.08025 0.30693-0.17834 0.16272-0.11587 0.32823-0.16346 0.47252-0.13588 0.21384 0.04088 0.80296-0.27518 1.2389-0.66464 0.08675-0.0775 0.24864-0.14614 0.35977-0.15252 0.18393-0.01057 0.20239-0.04959 0.2058-0.43495 0.0047-0.52685 0.09949-0.97751 0.3207-1.524 0.09424-0.23283 0.322-0.80433 0.50613-1.27s0.43934-1.0753 0.56714-1.3547c0.1278-0.2794 0.35704-0.77935 0.50944-1.111 0.1524-0.33165 0.36564-0.66503 0.47386-0.74083 0.22035-0.15434 0.54515-0.18198 0.62477-0.053162 0.02878 0.046567 0.11675 0.086633 0.1955 0.089037 0.07874 0.0024 0.26699 0.15892 0.41834 0.34782 0.22397 0.27956 0.27517 0.41858 0.27517 0.74726 0 0.25565-0.0466 0.44248-0.127 0.50921-0.06985 0.05797-0.127 0.14456-0.127 0.19243 0 0.047865-0.09079 0.28133-0.20175 0.5188-0.37416 0.80075-0.56025 1.2339-0.56025 1.304 0 0.03836-0.1002 0.2769-0.22267 0.53009-0.25574 0.52871-0.56716 1.4344-0.51214 1.4894 0.04467 0.04467 0.64068-0.34584 1.4657-0.96031 0.33213-0.24737 0.67995-0.44977 0.77294-0.44977 0.29006 0 1.1033 0.42033 1.3265 0.68564 0.28905 0.34352 0.41236 0.80055 0.36477 1.352-0.04436 0.51401-0.27427 1.3866-0.43352 1.6454-0.05731 0.09313-0.15262 0.33603-0.2118 0.53977l-0.1076 0.37044-0.38705-0.05305c-0.41628-0.05706-0.6158-0.17355-0.6158-0.35953 0-0.06415-0.03676-0.11663-0.08169-0.11663-0.13813 0-0.29061-0.36013-0.33843-0.79931l-0.04555-0.41831-0.254 0.22547c-0.1397 0.12401-0.31115 0.2802-0.381 0.3471-0.06985 0.0669-0.23178 0.16932-0.35983 0.2276-0.12806 0.05828-0.23283 0.1341-0.23283 0.16849 0 0.11046-0.67474 0.41835-0.91277 0.41651-0.12662-9.73e-4 -0.47278-0.15712-0.76923-0.34697-0.40189-0.25738-0.57419-0.42902-0.67733-0.67469-0.14098-0.33581-0.24684-0.41517-0.30065-0.22539-0.0165 0.05821-0.0727 0.25823-0.12489 0.4445-0.09441 0.33698-0.64344 0.99708-1.1521 1.3852-0.1397 0.10659-0.49406 0.42264-0.78747 0.70234-0.47342 0.4513-0.57825 0.51196-0.93133 0.53894-0.21883 0.01672-0.55027-0.01079-0.73653-0.06113zm11.666-0.47597c-0.08331-0.08486-0.2796-0.24293-0.43621-0.35125-0.38966-0.26953-0.54414-0.67853-0.52683-1.3949 0.01712-0.70854 0.31568-1.6559 0.74413-2.3612 0.27394-0.45095 0.32356-0.49234 0.55028-0.45907 0.20177 0.02961 0.28673-0.01318 0.44642-0.22484 0.10848-0.14378 0.24476-0.42229 0.30285-0.61892 0.05809-0.19663 0.18132-0.43875 0.27384-0.53806 0.24262-0.26042 0.92272-0.18088 1.7053 0.19946 0.3293 0.16003 0.86542 0.42023 1.1914 0.5782 0.45475 0.22039 0.62666 0.35533 0.73872 0.57987 0.08033 0.16095 0.11479 0.31335 0.07657 0.33867-0.03822 0.02531-0.12335 0.16032-0.18919 0.30002-0.11332 0.24046-0.14991 0.25533-0.68608 0.27894-0.3115 0.01371-0.77418-0.02933-1.0282-0.09566s-0.55243-0.10327-0.6632-0.08209c-0.27178 0.05195-0.51739 0.44117-0.79101 1.2535-0.21375 0.63459-0.53798 1.4466-0.87013 2.1792-0.07893 0.17409-0.18647 0.31697-0.23898 0.3175-0.05251 5.08e-4 -0.1429 0.05812-0.20087 0.12797-0.13733 0.16547-0.21485 0.16016-0.39887-0.02729zm-31.629-0.10692c-0.1899-0.10022-0.29662-0.20746-0.26208-0.26334 0.03312-0.05358 0.02013-0.0707-0.0301-0.03966-0.08705 0.0538-0.51104-0.3945-1.0564-1.1169-0.43517-0.57649-0.56127-0.84846-0.62321-1.3442-0.04655-0.37258-0.08368-0.45174-0.19502-0.41583-0.07564 0.0244-0.51852 0.17965-0.98419 0.345s-0.98476 0.30099-1.1535 0.3014l-0.30688 7.62e-4 -0.18648 0.61383c-0.10256 0.33761-0.24243 0.7426-0.31082 0.89998-0.12194 0.28063-0.13202 0.28509-0.52264 0.23167-0.21907-0.02996-0.411-0.09205-0.42652-0.13798-0.01552-0.04593-0.07413-0.08351-0.13024-0.08351-0.05611 0-0.23794-0.1626-0.40406-0.36134l-0.30204-0.36134 0.02762-0.74337c0.01519-0.40886 0.04653-0.77397 0.06963-0.81136 0.02311-0.03739-0.05497-0.19749-0.1735-0.35578-0.1789-0.2389-0.20927-0.35645-0.17877-0.69183 0.02021-0.22222 0.06456-0.43176 0.09855-0.46567 0.03399-0.0339 0.24564-0.05601 0.47032-0.04912l0.40852 0.01252 0.26159-0.74912c0.14388-0.41202 0.26159-0.78477 0.26159-0.82834 0-0.04357 0.05692-0.18834 0.12648-0.32172 0.06956-0.13338 0.12671-0.30694 0.127-0.38568 2.54e-4 -0.07874 0.03862-0.16672 0.08519-0.1955 0.04657-0.02878 0.08481-0.1358 0.08498-0.23783s0.07637-0.31025 0.16933-0.46272c0.09296-0.15247 0.16902-0.31816 0.16902-0.3682 0-0.12569 0.47324-1.1923 0.61419-1.3843 0.03512-0.04784 0.18752-0.27533 0.33867-0.50553s0.29386-0.40767 0.31714-0.39438c0.02328 0.01329 0.21016-0.042987 0.41528-0.12506l0.37295-0.14922 0.18619 0.21645c0.3498 0.40667 0.34041 0.8204-0.04653 2.0493-0.19179 0.60911-0.44295 1.3742-0.55813 1.7001-0.40972 1.1595-0.70466 2.1063-0.66768 2.1433 0.03226 0.03226 1.3738-0.15505 2.1028-0.29359 0.1312-0.02493 0.26175-0.10842 0.29011-0.18552 0.1514-0.41169 1.2188-1.4204 1.8829-1.7794 0.53496-0.28916 1.667-0.01385 2.132 0.51851 0.24276 0.27792 0.4323 0.84615 0.37382 1.1207-0.01984 0.09313-0.03899 0.21998-0.04255 0.28189-0.01171 0.20346-1.2874 1.3657-1.5644 1.4253-0.05121 0.01101-0.24552 0.07741-0.43179 0.14755-0.18627 0.07014-0.40534 0.12921-0.48683 0.13125-0.2318 0.0058-0.48683 0.31697-0.48683 0.59397 0 0.34958 0.3631 1.136 0.60168 1.3031 0.11704 0.08198 0.36514 0.13868 0.60681 0.13868 0.38647 0 0.41552 0.01605 0.5315 0.29361 0.16154 0.38662 0.15953 0.72239-0.0043 0.72239-0.06985 0-0.2032 0.0762-0.29633 0.16933-0.09313 0.09313-0.25992 0.16933-0.37063 0.16933-0.11071 0-0.24873 0.05715-0.3067 0.127-0.13575 0.16356-0.22672 0.15625-0.61668-0.04956zm4.6383-0.92411c-0.08428-0.09313-0.19556-0.16933-0.24728-0.16933-0.1621 0-0.81024-1.0842-0.91221-1.526-0.11482-0.49742 0.0094-1.3489 0.2718-1.8633 0.1978-0.38772 0.91659-1.0377 1.4535-1.3142 0.47333-0.24384 1.7673-0.54585 2.3388-0.54585 0.77556 0 1.3872 0.16507 1.9426 0.52432 0.29104 0.18823 0.52917 0.37746 0.52917 0.4205 0 0.04304 0.07767 0.16164 0.17261 0.26354 0.09493 0.1019 0.19249 0.28128 0.21678 0.39863 0.02429 0.11734 0.07997 0.27951 0.12372 0.36037 0.12565 0.2322 0.09999 0.27704-0.24578 0.4296-0.26188 0.11554-0.37748 0.12536-0.59267 0.05034-0.14703-0.05126-0.26733-0.12626-0.26733-0.16668 0-0.15471-1.8855 0.01751-2.54 0.232-0.34925 0.11446-0.66897 0.24142-0.71049 0.28213-0.04404 0.04318-0.01328 0.20514 0.07382 0.38869 0.21484 0.45275 0.11999 1.2775-0.21409 1.8614-0.21426 0.37449-0.29465 0.44376-0.56727 0.48882-0.51401 0.08496-0.66355 0.06414-0.82564-0.11497zm33.546-0.40217c-0.46338-0.39275-0.56852-0.66444-0.56753-1.4665 5.93e-4 -0.49591 0.04484-0.71856 0.20902-1.0523 0.11454-0.23283 0.20944-0.46962 0.21089-0.52619 0.0043-0.16729 0.33898-0.29746 0.6254-0.24325 0.30222 0.05721 0.79021 0.47737 0.90496 0.77918 0.11838 0.31137-0.23412 2.422-0.45441 2.7208-0.15108 0.20491-0.542 0.11577-0.92832-0.21167zm1.6204-4.445c-0.18243-0.20549-0.48813-1.011-0.49264-1.2981-0.0047-0.29914 0.3501-1.3196 0.51673-1.4862 0.08681-0.086813 0.15784-0.19415 0.15784-0.23854 0-0.08159 0.40825-0.29287 0.71967-0.37244 0.09313-0.023798 0.34063 0.040288 0.55 0.14241 0.4781 0.23321 0.69118 0.61586 0.64961 1.1666-0.0257 0.34043-0.08786 0.44996-0.48753 0.859-0.26366 0.26985-0.5273 0.64325-0.62117 0.87982-0.0897 0.22605-0.204 0.43899-0.254 0.4732-0.18713 0.12804-0.57129 0.06265-0.73851-0.1257z" stroke-width=".084667"/>
 <path id="helpline" d="m1.9675 18.645h90.83" fill="none" stroke="#f00" stroke-width=".26458px"/>
</svg>
